<svg width="269" height="260" viewBox="0 0 269 260" fill="none" xmlns="http://www.w3.org/2000/svg">
<path d="M235.81 214.515C172.918 240.213 113.786 206.401 55.899 152.872" stroke="black" stroke-width="4" stroke-linecap="round" stroke-linejoin="round"/>
<path d="M231.434 200.215C226.692 208.108 229.246 218.351 237.139 223.094C245.032 227.837 255.275 225.283 260.018 217.39C264.761 209.496 262.207 199.253 254.314 194.51C246.421 189.768 236.177 192.322 231.434 200.215Z" fill="black"/>
<path d="M151.585 22C205.18 62.6818 206.631 130.796 190.805 208" stroke="black" stroke-width="4" stroke-linecap="round" stroke-linejoin="round"/>
<path d="M141.085 33C150.198 33 157.585 25.6127 157.585 16.5C157.585 7.3873 150.198 0 141.085 0C131.973 0 124.585 7.3873 124.585 16.5C124.585 25.6127 131.973 33 141.085 33Z" fill="black"/>
<path d="M28.1022 192.037C34.9383 124.443 92.5529 88.1054 166.993 62.1249" stroke="black" stroke-width="4" stroke-linecap="round" stroke-linejoin="round"/>
<path d="M42.7826 194.888C38.0399 186.994 27.7965 184.44 19.9033 189.183C12.0101 193.926 9.45617 204.169 14.1989 212.062C18.9416 219.956 29.185 222.51 37.0781 217.767C44.9713 213.024 47.5253 202.781 42.7826 194.888Z" fill="black"/>
<path fill-rule="evenodd" clip-rule="evenodd" d="M149.82 121.464L147.289 163.642L114.559 144.746L149.82 121.464Z" fill="black"/>
</svg>
