<svg width="512" height="512" viewBox="0 0 512 512" fill="none" xmlns="http://www.w3.org/2000/svg">
<circle cx="256" cy="256" r="256" fill="black"/>
<path d="M396.442 367.089C302.519 405.466 214.21 354.972 127.762 275.031" stroke="white" stroke-width="13.3159" stroke-linecap="round" stroke-linejoin="round"/>
<path d="M389.908 345.733C382.825 357.521 386.64 372.818 398.427 379.901C410.215 386.984 425.513 383.17 432.595 371.382C439.678 359.594 435.864 344.297 424.076 337.214C412.289 330.131 396.991 333.945 389.908 345.733Z" fill="white"/>
<path d="M270.661 79.5851C350.699 140.34 352.866 242.062 329.231 357.359" stroke="white" stroke-width="13.3159" stroke-linecap="round" stroke-linejoin="round"/>
<path d="M254.98 96.0127C268.589 96.0127 279.621 84.9804 279.621 71.3714C279.621 57.7624 268.589 46.7301 254.98 46.7301C241.371 46.7301 230.338 57.7624 230.338 71.3714C230.338 84.9804 241.371 96.0127 254.98 96.0127Z" fill="white"/>
<path d="M86.2494 333.521C96.4585 232.574 182.501 178.308 293.67 139.508" stroke="white" stroke-width="13.3159" stroke-linecap="round" stroke-linejoin="round"/>
<path d="M108.173 337.777C101.091 325.989 85.7931 322.175 74.0053 329.258C62.2176 336.341 58.4035 351.639 65.4863 363.426C72.5691 375.214 87.8666 379.028 99.6544 371.945C111.442 364.863 115.256 349.565 108.173 337.777Z" fill="white"/>
<path fill-rule="evenodd" clip-rule="evenodd" d="M268.025 228.126L264.244 291.115L215.365 262.895L268.025 228.126Z" fill="white"/>
</svg>
