<svg width="1800" height="600" viewBox="0 0 1800 600" fill="none" xmlns="http://www.w3.org/2000/svg">
<rect opacity="0.04" width="1800" height="600" fill="black"/>
<path d="M999.81 343.515C936.918 369.213 877.786 335.401 819.899 281.872" stroke="black" stroke-width="4" stroke-linecap="round" stroke-linejoin="round"/>
<path d="M995.434 329.215C990.692 337.108 993.246 347.351 1001.14 352.094C1009.03 356.837 1019.28 354.283 1024.02 346.39C1028.76 338.496 1026.21 328.253 1018.31 323.51C1010.42 318.768 1000.18 321.322 995.434 329.215Z" fill="black"/>
<path d="M915.585 151C969.18 191.682 970.631 259.796 954.805 337" stroke="black" stroke-width="4" stroke-linecap="round" stroke-linejoin="round"/>
<path d="M905.085 162C914.198 162 921.585 154.613 921.585 145.5C921.585 136.387 914.198 129 905.085 129C895.973 129 888.585 136.387 888.585 145.5C888.585 154.613 895.973 162 905.085 162Z" fill="black"/>
<path d="M792.102 321.037C798.938 253.443 856.553 217.105 930.993 191.125" stroke="black" stroke-width="4" stroke-linecap="round" stroke-linejoin="round"/>
<path d="M806.783 323.888C802.04 315.994 791.796 313.44 783.903 318.183C776.01 322.926 773.456 333.169 778.199 341.062C782.942 348.956 793.185 351.51 801.078 346.767C808.971 342.024 811.525 331.781 806.783 323.888Z" fill="black"/>
<path fill-rule="evenodd" clip-rule="evenodd" d="M913.82 250.464L911.289 292.642L878.559 273.746L913.82 250.464Z" fill="black"/>
<path d="M610.734 405.461C609.893 405.306 608.997 405.229 608.045 405.229C605.566 405.229 603.463 405.926 601.736 407.32C600.032 408.693 598.814 410.696 598.084 413.33V438H594.133V402.074H598.018L598.084 407.785C600.187 403.535 603.562 401.41 608.211 401.41C609.318 401.41 610.192 401.554 610.834 401.842L610.734 405.461ZM630.291 438.664C627.236 438.664 624.469 437.911 621.99 436.406C619.533 434.901 617.618 432.809 616.246 430.131C614.874 427.43 614.188 424.409 614.188 421.066V419.639C614.188 416.186 614.852 413.076 616.18 410.309C617.53 407.542 619.4 405.372 621.791 403.801C624.182 402.207 626.771 401.41 629.561 401.41C633.921 401.41 637.374 402.904 639.92 405.893C642.488 408.859 643.771 412.921 643.771 418.078V420.303H618.139V421.066C618.139 425.139 619.301 428.537 621.625 431.26C623.971 433.96 626.915 435.311 630.457 435.311C632.582 435.311 634.452 434.923 636.068 434.148C637.706 433.374 639.189 432.134 640.518 430.43L643.008 432.322C640.086 436.55 635.847 438.664 630.291 438.664ZM629.561 404.797C626.572 404.797 624.049 405.893 621.99 408.084C619.954 410.275 618.714 413.219 618.271 416.916H639.82V416.484C639.71 413.031 638.725 410.22 636.865 408.051C635.006 405.882 632.571 404.797 629.561 404.797ZM674.186 438C673.787 436.871 673.533 435.2 673.422 432.986C672.027 434.801 670.245 436.207 668.076 437.203C665.929 438.177 663.649 438.664 661.236 438.664C657.783 438.664 654.983 437.701 652.836 435.775C650.711 433.85 649.648 431.415 649.648 428.471C649.648 424.973 651.098 422.206 653.998 420.17C656.92 418.133 660.982 417.115 666.184 417.115H673.389V413.031C673.389 410.464 672.592 408.449 670.998 406.988C669.426 405.505 667.124 404.764 664.092 404.764C661.325 404.764 659.034 405.472 657.219 406.889C655.404 408.305 654.496 410.01 654.496 412.002L650.512 411.969C650.512 409.113 651.84 406.645 654.496 404.564C657.152 402.462 660.417 401.41 664.291 401.41C668.298 401.41 671.452 402.417 673.754 404.432C676.078 406.424 677.273 409.213 677.34 412.799V429.799C677.34 433.274 677.705 435.875 678.436 437.602V438H674.186ZM661.701 435.145C664.357 435.145 666.726 434.503 668.807 433.219C670.91 431.935 672.437 430.219 673.389 428.072V420.17H666.283C662.321 420.214 659.222 420.945 656.986 422.361C654.751 423.756 653.633 425.682 653.633 428.139C653.633 430.153 654.374 431.824 655.857 433.152C657.363 434.48 659.311 435.145 661.701 435.145ZM701.246 435.311C704.013 435.311 706.326 434.536 708.186 432.986C710.067 431.415 711.085 429.389 711.24 426.91H715.059C714.948 429.102 714.262 431.105 713 432.92C711.738 434.713 710.056 436.118 707.953 437.137C705.872 438.155 703.637 438.664 701.246 438.664C696.531 438.664 692.79 437.026 690.023 433.75C687.279 430.474 685.906 426.069 685.906 420.535V419.34C685.906 415.798 686.526 412.666 687.766 409.943C689.005 407.221 690.776 405.118 693.078 403.635C695.402 402.152 698.114 401.41 701.213 401.41C705.153 401.41 708.396 402.583 710.941 404.93C713.509 407.276 714.882 410.364 715.059 414.193H711.24C711.063 411.382 710.045 409.113 708.186 407.387C706.348 405.66 704.024 404.797 701.213 404.797C697.627 404.797 694.838 406.092 692.846 408.682C690.876 411.271 689.891 414.902 689.891 419.572V420.734C689.891 425.316 690.876 428.891 692.846 431.459C694.838 434.027 697.638 435.311 701.246 435.311ZM729.203 392.877V402.074H736.641V405.328H729.203V429.268C729.203 431.26 729.557 432.743 730.266 433.717C730.996 434.691 732.202 435.178 733.885 435.178C734.549 435.178 735.622 435.067 737.105 434.846L737.271 438.1C736.231 438.476 734.814 438.664 733.021 438.664C730.299 438.664 728.318 437.878 727.078 436.307C725.839 434.713 725.219 432.378 725.219 429.301V405.328H718.611V402.074H725.219V392.877H729.203ZM765.195 402.074L765.328 408.217C766.678 406.003 768.361 404.321 770.375 403.17C772.389 401.997 774.614 401.41 777.049 401.41C780.9 401.41 783.767 402.495 785.648 404.664C787.53 406.833 788.482 410.087 788.504 414.426V438H784.553V414.393C784.531 411.183 783.844 408.792 782.494 407.221C781.166 405.649 779.03 404.863 776.086 404.863C773.629 404.863 771.449 405.638 769.545 407.188C767.663 408.715 766.269 410.785 765.361 413.396V438H761.41V402.074H765.195ZM812.709 438.664C809.654 438.664 806.887 437.911 804.408 436.406C801.951 434.901 800.036 432.809 798.664 430.131C797.292 427.43 796.605 424.409 796.605 421.066V419.639C796.605 416.186 797.27 413.076 798.598 410.309C799.948 407.542 801.818 405.372 804.209 403.801C806.6 402.207 809.189 401.41 811.979 401.41C816.339 401.41 819.792 402.904 822.338 405.893C824.906 408.859 826.189 412.921 826.189 418.078V420.303H800.557V421.066C800.557 425.139 801.719 428.537 804.043 431.26C806.389 433.96 809.333 435.311 812.875 435.311C815 435.311 816.87 434.923 818.486 434.148C820.124 433.374 821.607 432.134 822.936 430.43L825.426 432.322C822.504 436.55 818.265 438.664 812.709 438.664ZM811.979 404.797C808.99 404.797 806.467 405.893 804.408 408.084C802.372 410.275 801.132 413.219 800.689 416.916H822.238V416.484C822.128 413.031 821.143 410.22 819.283 408.051C817.424 405.882 814.989 404.797 811.979 404.797ZM845.215 416.65L854.91 402.074H859.625L847.439 419.705L860.156 438H855.475L845.248 422.793L835.021 438H830.34L843.023 419.705L830.838 402.074H835.52L845.215 416.65ZM873.172 392.877V402.074H880.609V405.328H873.172V429.268C873.172 431.26 873.526 432.743 874.234 433.717C874.965 434.691 876.171 435.178 877.854 435.178C878.518 435.178 879.591 435.067 881.074 434.846L881.24 438.1C880.2 438.476 878.783 438.664 876.99 438.664C874.268 438.664 872.286 437.878 871.047 436.307C869.807 434.713 869.188 432.378 869.188 429.301V405.328H862.58V402.074H869.188V392.877H873.172ZM934.299 420.402C934.299 426.003 933.059 430.452 930.58 433.75C928.101 437.026 924.77 438.664 920.586 438.664C915.583 438.664 911.798 436.805 909.23 433.086L909.064 438H905.346V387H909.297V407.287C911.82 403.369 915.561 401.41 920.52 401.41C924.77 401.41 928.123 403.037 930.58 406.291C933.059 409.523 934.299 414.027 934.299 419.805V420.402ZM930.314 419.705C930.314 414.968 929.396 411.316 927.559 408.748C925.721 406.158 923.132 404.863 919.789 404.863C917.243 404.863 915.085 405.494 913.314 406.756C911.544 407.995 910.204 409.822 909.297 412.234V428.438C911.289 432.953 914.809 435.211 919.855 435.211C923.132 435.211 925.688 433.916 927.525 431.326C929.385 428.736 930.314 424.863 930.314 419.705ZM940.906 419.506C940.906 416.053 941.57 412.943 942.898 410.176C944.249 407.409 946.141 405.262 948.576 403.734C951.033 402.185 953.811 401.41 956.91 401.41C961.691 401.41 965.565 403.092 968.531 406.457C971.497 409.799 972.98 414.238 972.98 419.771V420.602C972.98 424.077 972.305 427.209 970.955 429.998C969.627 432.765 967.745 434.901 965.311 436.406C962.876 437.911 960.098 438.664 956.977 438.664C952.217 438.664 948.344 436.993 945.355 433.65C942.389 430.286 940.906 425.837 940.906 420.303V419.506ZM944.891 420.602C944.891 424.896 945.997 428.426 948.211 431.193C950.447 433.938 953.368 435.311 956.977 435.311C960.562 435.311 963.462 433.938 965.676 431.193C967.911 428.426 969.029 424.785 969.029 420.27V419.506C969.029 416.761 968.52 414.249 967.502 411.969C966.484 409.689 965.056 407.929 963.219 406.689C961.382 405.428 959.279 404.797 956.91 404.797C953.368 404.797 950.48 406.191 948.244 408.98C946.008 411.747 944.891 415.378 944.891 419.871V420.602ZM985.664 438H981.68V402.074H985.664V438ZM980.982 391.682C980.982 390.929 981.226 390.298 981.713 389.789C982.2 389.258 982.864 388.992 983.705 388.992C984.546 388.992 985.21 389.258 985.697 389.789C986.206 390.298 986.461 390.929 986.461 391.682C986.461 392.434 986.206 393.065 985.697 393.574C985.21 394.083 984.546 394.338 983.705 394.338C982.864 394.338 982.2 394.083 981.713 393.574C981.226 393.065 980.982 392.434 980.982 391.682ZM1000.94 438H996.953V387H1000.94V438ZM1025.67 438.664C1022.62 438.664 1019.85 437.911 1017.37 436.406C1014.92 434.901 1013 432.809 1011.63 430.131C1010.26 427.43 1009.57 424.409 1009.57 421.066V419.639C1009.57 416.186 1010.23 413.076 1011.56 410.309C1012.91 407.542 1014.78 405.372 1017.17 403.801C1019.56 402.207 1022.15 401.41 1024.94 401.41C1029.3 401.41 1032.76 402.904 1035.3 405.893C1037.87 408.859 1039.15 412.921 1039.15 418.078V420.303H1013.52V421.066C1013.52 425.139 1014.68 428.537 1017.01 431.26C1019.35 433.96 1022.3 435.311 1025.84 435.311C1027.96 435.311 1029.84 434.923 1031.45 434.148C1033.09 433.374 1034.57 432.134 1035.9 430.43L1038.39 432.322C1035.47 436.55 1031.23 438.664 1025.67 438.664ZM1024.94 404.797C1021.96 404.797 1019.43 405.893 1017.37 408.084C1015.34 410.275 1014.1 413.219 1013.65 416.916H1035.2V416.484C1035.09 413.031 1034.11 410.22 1032.25 408.051C1030.39 405.882 1027.95 404.797 1024.94 404.797ZM1063.49 405.461C1062.65 405.306 1061.75 405.229 1060.8 405.229C1058.32 405.229 1056.22 405.926 1054.49 407.32C1052.79 408.693 1051.57 410.696 1050.84 413.33V438H1046.89V402.074H1050.78L1050.84 407.785C1052.94 403.535 1056.32 401.41 1060.97 401.41C1062.08 401.41 1062.95 401.554 1063.59 401.842L1063.49 405.461ZM1098.69 420.402C1098.69 426.003 1097.45 430.452 1094.97 433.75C1092.49 437.026 1089.17 438.664 1085.01 438.664C1080.09 438.664 1076.33 436.938 1073.72 433.484V451.812H1069.77V402.074H1073.45L1073.65 407.154C1076.24 403.325 1079.99 401.41 1084.91 401.41C1089.2 401.41 1092.57 403.037 1095 406.291C1097.46 409.545 1098.69 414.061 1098.69 419.838V420.402ZM1094.7 419.705C1094.7 415.123 1093.76 411.504 1091.88 408.848C1090 406.191 1087.38 404.863 1084.01 404.863C1081.58 404.863 1079.49 405.45 1077.74 406.623C1075.99 407.796 1074.65 409.501 1073.72 411.736V428.969C1074.67 431.027 1076.03 432.599 1077.8 433.684C1079.57 434.768 1081.67 435.311 1084.08 435.311C1087.42 435.311 1090.02 433.982 1091.88 431.326C1093.76 428.648 1094.7 424.774 1094.7 419.705ZM1111.97 438H1107.98V387H1111.97V438ZM1145.47 438C1145.07 436.871 1144.82 435.2 1144.71 432.986C1143.31 434.801 1141.53 436.207 1139.36 437.203C1137.21 438.177 1134.93 438.664 1132.52 438.664C1129.07 438.664 1126.27 437.701 1124.12 435.775C1122 433.85 1120.93 431.415 1120.93 428.471C1120.93 424.973 1122.38 422.206 1125.28 420.17C1128.21 418.133 1132.27 417.115 1137.47 417.115H1144.67V413.031C1144.67 410.464 1143.88 408.449 1142.28 406.988C1140.71 405.505 1138.41 404.764 1135.38 404.764C1132.61 404.764 1130.32 405.472 1128.5 406.889C1126.69 408.305 1125.78 410.01 1125.78 412.002L1121.8 411.969C1121.8 409.113 1123.12 406.645 1125.78 404.564C1128.44 402.462 1131.7 401.41 1135.58 401.41C1139.58 401.41 1142.74 402.417 1145.04 404.432C1147.36 406.424 1148.56 409.213 1148.62 412.799V429.799C1148.62 433.274 1148.99 435.875 1149.72 437.602V438H1145.47ZM1132.99 435.145C1135.64 435.145 1138.01 434.503 1140.09 433.219C1142.19 431.935 1143.72 430.219 1144.67 428.072V420.17H1137.57C1133.61 420.214 1130.51 420.945 1128.27 422.361C1126.04 423.756 1124.92 425.682 1124.92 428.139C1124.92 430.153 1125.66 431.824 1127.14 433.152C1128.65 434.48 1130.6 435.145 1132.99 435.145ZM1165.43 392.877V402.074H1172.86V405.328H1165.43V429.268C1165.43 431.26 1165.78 432.743 1166.49 433.717C1167.22 434.691 1168.43 435.178 1170.11 435.178C1170.77 435.178 1171.85 435.067 1173.33 434.846L1173.49 438.1C1172.45 438.476 1171.04 438.664 1169.24 438.664C1166.52 438.664 1164.54 437.878 1163.3 436.307C1162.06 434.713 1161.44 432.378 1161.44 429.301V405.328H1154.83V402.074H1161.44V392.877H1165.43ZM1195.01 438.664C1191.96 438.664 1189.19 437.911 1186.71 436.406C1184.25 434.901 1182.34 432.809 1180.96 430.131C1179.59 427.43 1178.91 424.409 1178.91 421.066V419.639C1178.91 416.186 1179.57 413.076 1180.9 410.309C1182.25 407.542 1184.12 405.372 1186.51 403.801C1188.9 402.207 1191.49 401.41 1194.28 401.41C1198.64 401.41 1202.09 402.904 1204.64 405.893C1207.21 408.859 1208.49 412.921 1208.49 418.078V420.303H1182.86V421.066C1182.86 425.139 1184.02 428.537 1186.34 431.26C1188.69 433.96 1191.63 435.311 1195.18 435.311C1197.3 435.311 1199.17 434.923 1200.79 434.148C1202.43 433.374 1203.91 432.134 1205.24 430.43L1207.73 432.322C1204.8 436.55 1200.57 438.664 1195.01 438.664ZM1194.28 404.797C1191.29 404.797 1188.77 405.893 1186.71 408.084C1184.67 410.275 1183.43 413.219 1182.99 416.916H1204.54V416.484C1204.43 413.031 1203.44 410.22 1201.58 408.051C1199.72 405.882 1197.29 404.797 1194.28 404.797Z" fill="black"/>
</svg>
